# xmcd
#
# Track frame offsets:
#	150
#	24926
#	41200
#	66396
#	82286
#	103960
#	128243
#	147117
#	166630
#	182746
#	200727
#
# Disc length: 3055 seconds
#
# Revision: 1
# Processed by: cddbd v1.5.2PL0 Copyright (c) Steve Scherf et al.
# Submitted via: audiograbber 1.83.01
#
DISCID=a10bed0b
DTITLE=Let The Cat Out - Swimming Upstream
DYEAR=2012
DGENRE=Blues
TTITLE0=Swimming Upstream
TTITLE1=Be Your Fool
TTITLE2=None The Wiser
TTITLE3=Find Something Good Here
TTITLE4=Gossip
TTITLE5=Alegria
TTITLE6=Captain Creation
TTITLE7=Fire
TTITLE8=Good Times
TTITLE9=Jack Jumper
TTITLE10=Beautiful Thing
EXTD=
EXTT0=
EXTT1=
EXTT2=
EXTT3=
EXTT4=
EXTT5=
EXTT6=
EXTT7=
EXTT8=
EXTT9=
EXTT10=
PLAYORDER=
